<svg xmlns="http://www.w3.org/2000/svg" width="260" height="73" fill="none" xmlns:v="https://vecta.io/nano"><path d="M.08 11.68C.08 5.229 5.309 0 11.76 0h236.52c6.451 0 11.68 5.229 11.68 11.68v49.64c0 6.451-5.229 11.68-11.68 11.68H11.76C5.309 73 .08 67.771.08 61.32V11.68z" fill="#ff813f"/><g fill="#0d0c22"><path d="M52.337 24.008l-.032-.019-.074-.023c.03.025.067.04.106.041zm.468 3.338l-.035.01.035-.01zm-.457-3.344z"/><path d="M52.336 24.009h.006v-.004l-.006.004zm.439 3.33l.054-.031.02-.011.018-.02a.31.31 0 0 0-.092.062z"/><path d="M52.429 24.081l-.053-.05-.036-.019c.019.034.051.059.089.07zM39.147 56.469c-.042.018-.079.047-.107.083l.033-.021.074-.062zm7.711-1.517c0-.048-.023-.039-.018.131 0-.014.006-.028.008-.041l.009-.09zm-.793 1.517c-.042.018-.079.047-.108.083l.033-.021.074-.062zm-12.354.361c-.032-.028-.071-.046-.113-.053l.09.045.023.008zm-1.219-1.17a.36.36 0 0 0-.045-.141 1.16 1.16 0 0 1 .043.138l.001.002z"/></g><path d="M40.701 34.722c-1.678.718-3.583 1.533-6.051 1.533-1.032-.002-2.06-.144-3.055-.421l1.707 17.527a2.93 2.93 0 0 0 2.919 2.688l3.228.126 3.476-.126a2.93 2.93 0 0 0 2.918-2.687l1.828-19.367c-.817-.279-1.642-.464-2.571-.464-1.608-.001-2.903.553-4.4 1.194z" fill="#fd0"/><g fill="#0d0c22"><path d="M26.315 27.245l.029.027.019.011c-.015-.014-.03-.027-.048-.038z"/><path d="M55.571 25.627l-.257-1.297c-.231-1.163-.754-2.263-1.948-2.683-.383-.134-.817-.192-1.111-.471s-.38-.711-.448-1.112l-.373-2.207c-.111-.632-.199-1.341-.489-1.921-.377-.778-1.16-1.233-1.938-1.534-.399-.149-.806-.275-1.219-.377-1.944-.513-3.988-.701-5.988-.809-2.401-.133-4.807-.093-7.202.119-1.782.162-3.66.358-5.354.975-.619.226-1.257.496-1.728.975-.578.588-.766 1.496-.344 2.229.3.52.808.888 1.346 1.131.702.313 1.434.552 2.186.712 2.093.463 4.261.644 6.399.722a48.73 48.73 0 0 0 7.102-.232l1.747-.231c.684-.105 1.124-1 .922-1.623-.241-.745-.89-1.035-1.623-.922l-.324.048-.078.011-.745.088-1.544.136-3.471.119c-1.138 0-2.276-.032-3.411-.107l-1.55-.13-.702-.079-.223-.028-.048-.007-.231-.033-1.409-.251c-.047-.01-.089-.037-.119-.074s-.047-.084-.047-.133.016-.095.047-.133.072-.064.119-.074h.009l1.22-.224.41-.063h.004c.256-.017.513-.063.767-.093a48.81 48.81 0 0 1 6.668-.235l3.236.204.691.077.265.034.178.026 1.553.282c.763.166 1.743.22 2.082 1.056.108.265.157.56.217.838l.076.355.544 2.534a.46.46 0 0 1-.073.361.46.46 0 0 1-.314.192h-.005l-.11.015-.109.014-1.035.126-2.043.201-4.075.222-2.08.026c-2.759-.002-5.515-.163-8.255-.48l-.89-.111c.23.029-.167-.023-.248-.034l-.566-.082-1.894-.314c-.764-.126-1.494-.063-2.185.314-.567.31-1.026.786-1.315 1.364-.298.616-.387 1.287-.52 1.948s-.341 1.374-.262 2.053c.169 1.466 1.194 2.658 2.669 2.924l4.18.629a77.25 77.25 0 0 0 16.554.24l1.344-.137c.14-.015.281.001.414.047a.94.94 0 0 1 .353.221c.1.099.176.219.224.352s.064.274.05.414l-.14 1.356-.843 8.222-.886 8.633-.251 2.431-.243 2.408c-.239 1.239-1.078 2.001-2.302 2.279a16.06 16.06 0 0 1-3.418.4c-1.275.007-2.55-.05-3.825-.043-1.361.008-3.029-.118-4.08-1.131-.923-.89-1.051-2.283-1.177-3.488l-.498-4.785-.924-8.868-.598-5.738-.03-.284c-.072-.684-.556-1.354-1.32-1.32-.654.029-1.397.584-1.32 1.32l.443 4.254.916 8.799.781 7.5.15 1.438c.287 2.617 2.286 4.028 4.761 4.425 1.446.233 2.926.28 4.393.304 1.881.03 3.78.102 5.63-.238 2.741-.503 4.798-2.333 5.091-5.172l.251-2.459.835-8.136.909-8.862.417-4.062c.021-.201.106-.391.243-.54a.94.94 0 0 1 .517-.289c.784-.153 1.533-.414 2.09-1.01.888-.95 1.064-2.188.751-3.436zm-29.484.876c.012-.006-.01.097-.02.145-.002-.072.002-.136.02-.145zm.076.588c.006-.004.025.021.045.051-.029-.028-.048-.048-.045-.051h.001zm.075.099c.027.046.041.075 0 0h0zm.15.122h.004-.004zm26.305-.182c-.282.268-.706.392-1.125.454-4.701.698-9.471 1.051-14.224.895-3.402-.116-6.767-.494-10.135-.97-.33-.046-.688-.107-.915-.35-.427-.459-.217-1.383-.106-1.937.102-.508.297-1.185.901-1.257.943-.111 2.038.287 2.971.429a56.22 56.22 0 0 0 3.381.412c4.828.44 9.738.371 14.545-.272a60.54 60.54 0 0 0 2.619-.41c.775-.139 1.634-.4 2.102.403.321.547.364 1.278.314 1.896-.015.269-.133.522-.329.708h.001z"/></g><path d="M81.208 40.193c-.275.524-.652.98-1.132 1.367s-1.041.703-1.681.946-1.285.407-1.933.49a6.54 6.54 0 0 1-1.887-.023c-.609-.099-1.129-.3-1.555-.604l.481-4.992c.442-.152.998-.308 1.669-.467a15.27 15.27 0 0 1 2.07-.342 8.86 8.86 0 0 1 2.013.023c.633.083 1.132.285 1.498.604a3.05 3.05 0 0 1 .503.593 1.61 1.61 0 0 1 .252.661c.076.638-.023 1.219-.297 1.744zM74.231 29.56a5.74 5.74 0 0 1 1.155-.525 7.2 7.2 0 0 1 1.384-.319 6.01 6.01 0 0 1 1.384-.023c.45.046.847.171 1.19.376s.598.502.766.889.214.878.137 1.47c-.061.471-.248.87-.56 1.197s-.694.6-1.144.821a7.4 7.4 0 0 1-1.43.524 11.91 11.91 0 0 1-1.453.285l-1.212.114-.675.023.457-4.832zm9.448 7.407a4.69 4.69 0 0 0-.983-1.402 3.67 3.67 0 0 0-1.464-.877c.244-.197.484-.509.721-.935s.438-.889.606-1.39a7.63 7.63 0 0 0 .343-1.516c.061-.509.038-.946-.069-1.311-.26-.911-.668-1.626-1.224-2.142a4.54 4.54 0 0 0-1.944-1.071c-.74-.197-1.556-.239-2.448-.125s-1.804.338-2.733.672a1.32 1.32 0 0 1 .023-.239c.015-.083.023-.171.023-.262 0-.228-.114-.425-.343-.593s-.492-.266-.789-.296a1.44 1.44 0 0 0-.87.194c-.283.16-.477.453-.583.877l-.366 4.262-.389 4.468-.412 4.479-.412 4.273c.046.41.16.73.343.957s.396.365.64.41.499.003.766-.126.499-.353.698-.672a5.79 5.79 0 0 0 2.059.65 9.15 9.15 0 0 0 2.322 0 10.87 10.87 0 0 0 2.322-.559 9.84 9.84 0 0 0 2.082-1.025c.626-.41 1.151-.878 1.578-1.402s.709-1.09.846-1.698a5.95 5.95 0 0 0 .114-1.869 5.39 5.39 0 0 0-.457-1.732zm22.317 12.035a16.07 16.07 0 0 1-.355 1.584 10.43 10.43 0 0 1-.538 1.516c-.206.456-.434.824-.686 1.105s-.522.399-.812.354c-.229-.031-.374-.175-.434-.433s-.062-.578 0-.957a7.11 7.11 0 0 1 .354-1.288 11.28 11.28 0 0 1 .64-1.424c.251-.47.538-.923.858-1.356s.656-.794 1.007-1.083c.076.091.11.319.103.684s-.054.798-.137 1.299zm7.754-9.892a1.14 1.14 0 0 0-.755-.387c-.298-.03-.598.137-.903.501a5.38 5.38 0 0 1-.755 1.048 9.88 9.88 0 0 1-.949.912l-.938.706-.698.433a14.06 14.06 0 0 1-.103-1.573l.034-1.709a21.6 21.6 0 0 1 .286-2.484 16.28 16.28 0 0 1 .629-2.462c0-.425-.099-.771-.297-1.037s-.438-.433-.721-.502-.571-.03-.869.114-.553.407-.766.786l-.629 1.687-.801 1.903a19.1 19.1 0 0 1-.995 1.88 9.88 9.88 0 0 1-1.201 1.618 5.2 5.2 0 0 1-1.418 1.106 3.17 3.17 0 0 1-1.659.353c-.274-.076-.473-.281-.595-.616s-.194-.752-.217-1.254 0-1.052.069-1.653l.275-1.789.377-1.687.389-1.345c.183-.44.183-.809 0-1.105s-.435-.494-.755-.593a1.69 1.69 0 0 0-1.007.012c-.351.106-.603.342-.755.707-.259.623-.496 1.322-.709 2.097a21.87 21.87 0 0 0-.515 2.405c-.13.828-.203 1.649-.218 2.462l.001.156c-.333.883-.65 1.551-.95 1.998-.389.578-.828.828-1.315.752-.214-.091-.354-.304-.423-.638s-.092-.744-.069-1.231.081-1.037.172-1.652l.343-1.914.435-1.994.412-1.892c-.015-.532-.172-.938-.469-1.219s-.713-.391-1.246-.331c-.366.152-.637.35-.812.593s-.317.555-.423.934c-.061.198-.153.593-.275 1.186l-.469 2.04-.675 2.405c-.26.836-.549 1.592-.869 2.268s-.671 1.219-1.052 1.63-.793.578-1.235.501c-.244-.046-.4-.296-.469-.752s-.08-1.018-.034-1.687a21.85 21.85 0 0 1 .275-2.199l.423-2.268.401-1.892.252-1.094c0-.441-.1-.794-.297-1.06s-.439-.433-.721-.501-.572-.03-.869.114-.553.407-.766.786l-.297 1.425-.354 1.664-.32 1.675-.217 1.436-.103 1.174-.058 1.47a10.32 10.32 0 0 0 .115 1.539 5.07 5.07 0 0 0 .412 1.402 2.76 2.76 0 0 0 .835 1.049c.358.273.812.425 1.361.456.564.03 1.056-.011 1.476-.125a3.59 3.59 0 0 0 1.144-.536 5.04 5.04 0 0 0 .938-.866l.835-1.094c.259.578.595 1.026 1.006 1.345a2.69 2.69 0 0 0 1.304.57c.457.06.923-.004 1.396-.194s.899-.513 1.281-.969c.251-.28.488-.597.71-.949a4.18 4.18 0 0 0 .308.47c.374.487.881.821 1.522 1.003.686.182 1.356.213 2.012.091a6.44 6.44 0 0 0 1.876-.661 8.86 8.86 0 0 0 1.659-1.151 10.52 10.52 0 0 0 1.338-1.402l-.023.992-.023 1.014c-.763.532-1.483 1.17-2.162 1.914a15.32 15.32 0 0 0-1.784 2.382 12.77 12.77 0 0 0-1.201 2.564c-.29.867-.431 1.675-.423 2.428s.187 1.409.537 1.971.923.965 1.716 1.208c.824.258 1.548.266 2.174.023s1.17-.646 1.635-1.208.846-1.242 1.144-2.04.534-1.63.709-2.496.286-1.718.332-2.553a18.23 18.23 0 0 0 0-2.234c1.311-.547 2.386-1.238 3.225-2.074s1.532-1.717 2.082-2.644c.167-.228.224-.501.171-.82s-.183-.593-.389-.821zm28.86-1.458a11.01 11.01 0 0 1 .205-1.105 9.16 9.16 0 0 1 .344-1.128c.137-.365.297-.68.48-.946s.378-.456.583-.57.416-.102.63.034c.228.137.369.426.423.866s0 .912-.161 1.413-.446.972-.857 1.413-.969.729-1.67.866c-.031-.212-.023-.494.023-.843zm7.926.934c-.252-.075-.492-.083-.721-.023s-.374.22-.434.479a6.83 6.83 0 0 1-.584 1.493c-.267.509-.594.992-.983 1.447a7.34 7.34 0 0 1-1.316 1.208c-.488.35-.998.6-1.532.752-.534.167-.976.186-1.327.057s-.629-.349-.835-.661-.355-.688-.446-1.128a7.91 7.91 0 0 1-.16-1.368c.869.061 1.643-.095 2.322-.467s1.254-.866 1.727-1.481.831-1.307 1.075-2.074.381-1.531.412-2.291c.015-.714-.092-1.318-.321-1.812s-.537-.878-.926-1.151-.835-.433-1.338-.479a3.6 3.6 0 0 0-1.533.205c-.626.213-1.155.558-1.59 1.037s-.797 1.034-1.086 1.664a10.52 10.52 0 0 0-.687 2.04 18.33 18.33 0 0 0-.365 2.154l-.119 1.826-.099.225c-.236.54-.511 1.068-.823 1.584s-.66.95-1.041 1.299-.778.471-1.19.365c-.244-.06-.377-.342-.4-.843s.004-1.125.08-1.869l.263-2.416a21.9 21.9 0 0 0 .149-2.484c0-.684-.13-1.341-.389-1.972s-.614-1.155-1.064-1.572a3.37 3.37 0 0 0-1.567-.832c-.595-.137-1.235-.046-1.921.273s-1.232.767-1.636 1.345-.774 1.185-1.109 1.823c-.123-.486-.301-.938-.538-1.356a4.37 4.37 0 0 0-.869-1.094 3.93 3.93 0 0 0-1.155-.729c-.427-.174-.877-.262-1.35-.262-.458 0-.881.088-1.27.262a4.43 4.43 0 0 0-1.063.672 5.91 5.91 0 0 0-.87.923 10.66 10.66 0 0 0-.686 1.014l-.103-1.037a2.45 2.45 0 0 0-.206-.752 1.05 1.05 0 0 0-.423-.467c-.183-.106-.442-.16-.777-.16a1.33 1.33 0 0 0-.504.102c-.168.069-.317.164-.446.285s-.229.27-.297.445a1.2 1.2 0 0 0-.058.604 3.41 3.41 0 0 0 .126.604 7.81 7.81 0 0 1 .195.923 15.97 15.97 0 0 1 .148 1.379c.038.54.05 1.201.035 1.983l-.172 2.746-.469 3.647c-.03.319.092.578.366.775s.587.311.938.342a1.87 1.87 0 0 0 .995-.182c.313-.152.492-.418.538-.798.046-.714.133-1.474.263-2.279l.48-2.393.652-2.257c.244-.714.515-1.345.812-1.892s.607-.984.927-1.31.655-.49 1.006-.49c.427 0 .759.194.995.581s.404.886.504 1.493a11.74 11.74 0 0 1 .137 1.995l-.092 2.086-.183 1.789-.148 1.083c0 .35.133.627.4.832a1.77 1.77 0 0 0 .892.365c.328.038.637-.023.927-.183s.457-.429.503-.809c.152-1.094.362-2.192.629-3.293s.572-2.089.915-2.963.724-1.588 1.144-2.143.865-.832 1.338-.832c.244 0 .431.167.56.501s.195.79.195 1.367c0 .426-.035.862-.103 1.311l-.24 1.39-.241 1.47c-.068.502-.102 1.026-.102 1.573a8.95 8.95 0 0 0 .114 1.322 5.07 5.07 0 0 0 .434 1.424 3.33 3.33 0 0 0 .881 1.14c.374.312.85.467 1.43.467.869 0 1.639-.186 2.31-.558a5.78 5.78 0 0 0 1.727-1.459l.072-.096.111.267c.328.669.774 1.185 1.339 1.55s1.227.566 1.99.604 1.593-.103 2.493-.422a6.91 6.91 0 0 0 1.75-.912 6.56 6.56 0 0 0 1.338-1.333c.397-.524.759-1.128 1.087-1.812l.995-2.348c.061-.243.004-.459-.171-.649a1.42 1.42 0 0 0-.641-.399zm12.431-2.543l-.309 1.482-.492 1.675c-.198.578-.442 1.098-.732 1.561s-.621.832-.995 1.105-.804.388-1.292.342c-.245-.03-.431-.197-.561-.501s-.198-.691-.206-1.163a8.83 8.83 0 0 1 .126-1.55 9.49 9.49 0 0 1 .423-1.653c.191-.539.424-1.037.698-1.493s.591-.809.949-1.06a1.89 1.89 0 0 1 1.178-.353c.427.015.885.228 1.373.638l-.16.969zm8.132 1.744c-.237-.121-.481-.148-.732-.079s-.431.3-.538.695c-.061.426-.198.927-.411 1.504a9.57 9.57 0 0 1-.79 1.641c-.312.517-.671.946-1.075 1.288s-.835.498-1.292.467a.89.89 0 0 1-.801-.581c-.153-.357-.232-.805-.24-1.345s.046-1.147.16-1.823l.412-2.018.492-1.926.412-1.561c.122-.38.083-.703-.115-.969a1.65 1.65 0 0 0-.743-.57 1.68 1.68 0 0 0-.904-.091c-.305.053-.503.217-.595.49-.9-.775-1.765-1.193-2.596-1.253s-1.598.122-2.299.547-1.323 1.041-1.864 1.846-.98 1.683-1.316 2.633a11.68 11.68 0 0 0-.629 2.906c-.084.988-.019 1.888.195 2.701s.59 1.478 1.132 1.994 1.277.775 2.207.775c.412 0 .809-.084 1.19-.251s.732-.365 1.052-.593a6.23 6.23 0 0 0 .847-.718l.572-.627c.106.547.282 1.011.526 1.391a3.67 3.67 0 0 0 .835.934 3.32 3.32 0 0 0 .983.536 3.15 3.15 0 0 0 .995.171c.717 0 1.388-.243 2.013-.73a8.28 8.28 0 0 0 1.682-1.789 11.41 11.41 0 0 0 1.223-2.234c.321-.782.534-1.478.641-2.086.107-.228.088-.467-.057-.718s-.336-.437-.572-.559zm41.175 12.583c-.13.517-.332.954-.607 1.31s-.617.543-1.029.559c-.259.015-.457-.122-.595-.41s-.232-.661-.285-1.117a11.66 11.66 0 0 1-.069-1.527l.069-1.664.137-1.527.126-1.094a1.98 1.98 0 0 1 1.292.672c.343.387.606.847.789 1.379s.29 1.105.321 1.721-.02 1.181-.149 1.698zm-8.281 0c-.13.517-.332.954-.606 1.31s-.618.543-1.03.559c-.259.015-.457-.122-.594-.41s-.233-.661-.286-1.117a11.66 11.66 0 0 1-.069-1.527l.069-1.664.137-1.527.126-1.094a1.98 1.98 0 0 1 1.292.672c.343.387.606.847.789 1.379a6.19 6.19 0 0 1 .321 1.721c.03.615-.02 1.181-.149 1.698zm-8.498-12.946c-.016.364-.05.687-.103.968s-.126.46-.217.536c-.168-.091-.374-.327-.618-.707a4.82 4.82 0 0 1-.572-1.288c-.137-.479-.18-.949-.126-1.413s.294-.824.721-1.083c.167-.091.312-.057.434.103s.221.391.298.695.129.654.16 1.048a9.55 9.55 0 0 1 .023 1.14zm-2.025 4.547a4.03 4.03 0 0 1-.789.65c-.29.182-.587.319-.892.41s-.58.114-.824.068c-.686-.136-1.212-.433-1.578-.889s-.599-.991-.698-1.607-.088-1.273.035-1.972.327-1.348.617-1.949.641-1.117 1.052-1.55.862-.703 1.35-.809c-.183.775-.244 1.577-.183 2.405s.26 1.607.595 2.336a6.13 6.13 0 0 0 .766 1.208 4.18 4.18 0 0 0 1.087.935 2.99 2.99 0 0 1-.538.764zm25.312-4.319c.045-.349.114-.718.206-1.106s.206-.763.343-1.128a4.37 4.37 0 0 1 .48-.946c.183-.266.378-.456.583-.57s.416-.103.629.034c.229.137.37.426.424.866s0 .912-.16 1.413-.446.973-.858 1.413-.969.73-1.67.866c-.031-.212-.023-.494.023-.843zm9.219 0a11.35 11.35 0 0 1 .205-1.106 9.18 9.18 0 0 1 .344-1.128 4.37 4.37 0 0 1 .48-.946c.183-.266.378-.456.583-.57s.416-.103.63.034c.228.137.369.426.423.866s0 .912-.161 1.413-.446.973-.857 1.413-.969.73-1.67.866c-.031-.212-.023-.494.023-.843zm8.567 1.333a1.42 1.42 0 0 0-.641-.399c-.251-.076-.491-.083-.721-.023s-.374.22-.434.479a6.78 6.78 0 0 1-.584 1.493c-.267.509-.594.992-.983 1.447a7.39 7.39 0 0 1-1.315 1.208 4.95 4.95 0 0 1-1.533.752c-.534.168-.976.187-1.327.057a1.67 1.67 0 0 1-.835-.661 3.22 3.22 0 0 1-.446-1.129c-.091-.44-.145-.896-.16-1.367.869.061 1.643-.094 2.322-.467a5.48 5.48 0 0 0 1.727-1.482c.473-.616.831-1.306 1.075-2.074a8.71 8.71 0 0 0 .412-2.291c.015-.714-.092-1.318-.321-1.812s-.537-.878-.926-1.151-.835-.433-1.338-.479a3.6 3.6 0 0 0-1.533.205 3.74 3.74 0 0 0-1.589 1.037c-.434.478-.798 1.034-1.087 1.664a10.56 10.56 0 0 0-.687 2.04 18.32 18.32 0 0 0-.365 2.154l-.124 1.97-.186.378a7.76 7.76 0 0 1-.983 1.447 7.34 7.34 0 0 1-1.315 1.208 4.94 4.94 0 0 1-1.533.752c-.534.168-.976.187-1.327.057a1.67 1.67 0 0 1-.835-.661c-.206-.312-.354-.688-.446-1.129a7.91 7.91 0 0 1-.16-1.367c.869.061 1.643-.094 2.322-.467a5.48 5.48 0 0 0 1.727-1.482c.473-.616.831-1.306 1.075-2.074a8.71 8.71 0 0 0 .412-2.291c.015-.714-.092-1.318-.32-1.812s-.538-.878-.927-1.151-.835-.433-1.338-.479-1.014.023-1.533.205a3.74 3.74 0 0 0-1.589 1.037c-.434.478-.798 1.034-1.087 1.664a10.49 10.49 0 0 0-.686 2.04 18.58 18.58 0 0 0-.366 2.154l-.094 1.164-.444.374a13.75 13.75 0 0 1-1.658 1.151 10.3 10.3 0 0 1-1.807.843 7.28 7.28 0 0 1-1.922.399l1.418-15.134c.092-.319.046-.6-.137-.843s-.419-.41-.709-.501a1.49 1.49 0 0 0-.927.023c-.328.107-.598.35-.812.729l-.331 2.371-.343 3.282-.344 3.669-.297 3.533-.011.141-.401.338a13.75 13.75 0 0 1-1.658 1.151 10.27 10.27 0 0 1-1.807.843 7.28 7.28 0 0 1-1.922.399l1.418-15.134c.092-.319.046-.6-.137-.843a1.39 1.39 0 0 0-.709-.501 1.49 1.49 0 0 0-.927.023c-.328.107-.598.35-.812.729l-.331 2.371-.343 3.282-.344 3.669-.297 3.533-.005.064a5.37 5.37 0 0 1-.784.289c-.29.084-.618.133-.984.148a8.76 8.76 0 0 0 .149-.912l.092-1.048.023-1.094-.058-1.003a8.56 8.56 0 0 0-.423-1.858c-.206-.585-.484-1.074-.835-1.47s-.789-.661-1.315-.798-1.14-.091-1.842.137c-1.037-.137-1.971-.041-2.802.285s-1.552.802-2.162 1.424-1.109 1.356-1.498 2.2a9.44 9.44 0 0 0-.778 2.598c-.055.377-.081.752-.09 1.126a6.67 6.67 0 0 1-.779 1.256c-.404.501-.823.912-1.258 1.231s-.866.562-1.292.73-.809.281-1.144.342c-.397.076-.778.084-1.144.023s-.702-.235-1.006-.524c-.245-.212-.432-.555-.561-1.026s-.206-1.006-.229-1.607 0-1.227.069-1.88a10.85 10.85 0 0 1 .354-1.858 7.36 7.36 0 0 1 .641-1.573c.259-.463.564-.794.915-.991.198.031.32.148.366.353s.057.449.034.73l-.103.866c-.045.296-.068.544-.068.741.076.41.225.73.446.957s.469.361.743.399.545-.026.812-.194.484-.433.652-.798c.015.015.038.023.069.023l.32-2.895a1.25 1.25 0 0 0-.183-1.048c-.213-.303-.496-.479-.846-.524-.443-.638-1.041-.976-1.796-1.014s-1.529.209-2.322.741c-.488.35-.919.832-1.292 1.447a9.29 9.29 0 0 0-.915 2.051 12.92 12.92 0 0 0-.503 2.382c-.1.836-.119 1.649-.058 2.439s.202 1.535.423 2.234.53 1.284.927 1.755c.335.41.716.711 1.144.901a4.29 4.29 0 0 0 1.338.353c.465.045.926.026 1.384-.057a7.75 7.75 0 0 0 1.304-.353c.533-.197 1.083-.448 1.647-.752s1.105-.669 1.624-1.094c.273-.224.535-.468.789-.73.116.286.245.562.4.821a4.85 4.85 0 0 0 1.67 1.664c.701.425 1.563.63 2.585.615a6.13 6.13 0 0 0 3.043-.832c.931-.54 1.692-1.334 2.287-2.382a8.18 8.18 0 0 0 2.629-.437l-.021.278-.092 1.641-.103 1.857-.102 2.325a22.41 22.41 0 0 0 .091 2.462c.076.829.236 1.58.48 2.257s.591 1.249 1.041 1.721 1.041.752 1.773.843c.778.106 1.449-.031 2.013-.41s1.022-.9 1.373-1.561.598-1.425.743-2.291a11.08 11.08 0 0 0 .126-2.61c-.061-.874-.221-1.698-.481-2.473s-.617-1.413-1.075-1.915c.275-.075.603-.22.984-.433l1.178-.718.296-.201-.056 1.147-.103 1.857-.103 2.325a22.41 22.41 0 0 0 .092 2.462c.076.828.236 1.58.48 2.257s.591 1.249 1.041 1.721 1.041.752 1.773.843c.778.106 1.448-.031 2.013-.41s1.021-.9 1.373-1.561.598-1.425.743-2.291.186-1.736.126-2.61-.222-1.698-.481-2.473-.617-1.413-1.075-1.915c.275-.075.602-.22.984-.433l1.178-.718.627-.427c.079.743.247 1.395.516 1.943.328.669.774 1.185 1.339 1.55s1.227.566 1.99.604 1.593-.103 2.494-.422a6.89 6.89 0 0 0 1.749-.911c.496-.365.942-.809 1.338-1.333l.067-.094a4.89 4.89 0 0 0 .242.607c.328.669.774 1.185 1.339 1.55s1.227.566 1.99.604 1.593-.103 2.493-.422a6.88 6.88 0 0 0 1.75-.911c.496-.365.942-.809 1.338-1.333s.759-1.129 1.087-1.812l.995-2.348c.061-.243.004-.46-.171-.65z" fill-rule="evenodd" fill="#fff"/></svg>